<svg width="800" height="600" xmlns="http://www.w3.org/2000/svg">
  <defs>
    <linearGradient id="venetian" x1="0%" y1="0%" x2="100%" y2="100%">
      <stop offset="0%" style="stop-color:#1e3a8a;stop-opacity:1" />
      <stop offset="50%" style="stop-color:#3b82f6;stop-opacity:1" />
      <stop offset="100%" style="stop-color:#60a5fa;stop-opacity:1" />
    </linearGradient>
  </defs>
  
  <!-- Sky background -->
  <rect width="800" height="400" fill="url(#venetian)"/>
  
  <!-- Ground -->
  <rect x="0" y="400" width="800" height="200" fill="#f3f4f6"/>
  
  <!-- Basilica outline -->
  <polygon points="200,250 300,150 400,200 500,150 600,250 600,400 200,400" fill="#d1d5db" stroke="#6b7280" stroke-width="2"/>
  
  <!-- Campanile (Bell Tower) -->
  <rect x="650" y="100" width="40" height="300" fill="#ef4444" stroke="#dc2626" stroke-width="2"/>
  <polygon points="650,100 670,80 690,100" fill="#fbbf24"/>
  
  <!-- Arches -->
  <circle cx="250" cy="320" r="30" fill="none" stroke="#6b7280" stroke-width="3"/>
  <circle cx="350" cy="320" r="30" fill="none" stroke="#6b7280" stroke-width="3"/>
  <circle cx="450" cy="320" r="30" fill="none" stroke="#6b7280" stroke-width="3"/>
  <circle cx="550" cy="320" r="30" fill="none" stroke="#6b7280" stroke-width="3"/>
  
  <!-- Central dome -->
  <ellipse cx="400" cy="180" rx="60" ry="40" fill="#10b981"/>
  <ellipse cx="400" cy="160" rx="20" ry="15" fill="#fbbf24"/>
  
  <!-- Title -->
  <text x="400" y="500" font-family="Arial, sans-serif" font-size="28" fill="#1f2937" text-anchor="middle" font-weight="bold">🏛️ Piazza San Marco</text>
  <text x="400" y="530" font-family="Arial, sans-serif" font-size="18" fill="#6b7280" text-anchor="middle">La piazza più famosa di Venezia</text>
  <text x="400" y="560" font-family="Arial, sans-serif" font-size="14" fill="#9ca3af" text-anchor="middle">Basilica di San Marco • Campanile • Palazzo Ducale</text>
</svg>